<svg width="288" height="227" xmlns="http://www.w3.org/2000/svg" xmlns:xlink="http://www.w3.org/1999/xlink" xml:space="preserve" overflow="hidden"><g transform="translate(-400 -373)"><path d="M50.8504 118.229C41.056 118.229 33.116 126.169 33.116 135.964 33.116 145.758 41.056 153.698 50.8504 153.698 60.6447 153.698 68.5847 145.758 68.5847 135.964 68.5743 126.173 60.6404 118.24 50.8504 118.229ZM50.8504 148.969C43.6677 148.969 37.8452 143.146 37.8452 135.964 37.8452 128.781 43.6677 122.958 50.8504 122.958 58.033 122.958 63.8556 128.781 63.8556 135.964 63.8478 143.143 58.0297 148.961 50.8504 148.969Z" transform="matrix(1.26872 0 0 1 400 373)"/><path d="M73.2075 138.054C73.0604 139.66 72.7384 141.246 72.2475 142.783L157.136 142.783C156.647 141.246 156.326 139.66 156.178 138.054Z" transform="matrix(1.26872 0 0 1 400 373)"/><path d="M219.237 121.142C218.183 120.345 217.185 119.476 216.251 118.541 212.765 114.566 207.149 108.31 201.001 105.373 184.542 97.5012 158.439 95.4937 158.439 95.4937L146.335 93.9685C133.844 86.2359 120.822 79.3961 107.366 73.5007 106.154 73.015 104.778 73.6043 104.292 74.8166 103.827 75.9764 104.346 77.2975 105.475 77.8326 115.444 82.1993 125.173 87.093 134.623 92.493L132.428 92.2188 127.598 92.2188C125.042 92.2188 122.97 94.2906 122.97 96.8462L95.6285 96.8462C95.0775 96.8467 94.528 96.7935 93.9875 96.6878L92.2306 96.3449 82.7722 94.5124 82.7722 87.4896C82.7722 86.1836 81.7136 85.125 80.4077 85.125 79.1017 85.125 78.0431 86.1836 78.0431 87.4896L78.0431 93.5949 59.7057 90.3436C56.8808 89.8684 53.9908 89.9405 51.1932 90.5564 48.7624 91.0979 46.282 91.8097 44.9294 92.2117 36.4335 94.7891 15.0695 102.226 8.94758 106.399 4.32955 109.549 7.01808 128.037 7.01808 128.037L4.74099 130.906 4.67715 132.812C4.58758 135.494 6.3901 137.873 8.99724 138.513L11.5037 139.132C15.3713 139.893 19.2946 140.336 23.2344 140.459L28.9094 140.778C28.5623 139.212 28.3847 137.614 28.3797 136.011L23.381 135.727C19.7381 135.614 16.1102 135.208 12.5323 134.514L10.1299 133.918C9.70122 133.808 9.4065 133.415 9.4205 132.972L9.43232 132.627 10.7376 130.972 12.0074 129.373 11.7141 127.352C10.6714 120.173 10.7541 112.121 11.8726 110.14 17.505 106.489 37.1571 99.4993 46.2914 96.7398 47.8142 96.2882 50.0748 95.6474 52.2266 95.1697 54.4344 94.6841 56.7152 94.6278 58.9443 95.0042L91.3391 100.982 93.0984 101.325C93.9416 101.486 94.7985 101.565 95.6568 101.561L127.699 101.561 127.699 96.9479 132.131 96.9479 157.848 100.185 157.961 100.199 158.075 100.199C158.328 100.218 183.477 102.226 198.963 109.632 204.456 112.256 210.02 118.6 212.694 121.651L212.796 121.767 212.907 121.875C213.979 122.95 215.124 123.949 216.333 124.867 217.101 125.458 217.551 126.371 217.553 127.34L217.553 135.181 200.961 135.181C200.961 135.439 201.001 135.694 201.001 135.954 200.995 137.281 200.87 138.605 200.63 139.91L222.283 139.91 222.283 127.349C222.276 124.922 221.153 122.633 219.237 121.142Z" transform="matrix(1.26872 0 0 1 400 373)"/><path d="M178.538 118.229C168.744 118.229 160.803 126.169 160.803 135.964 160.803 145.758 168.744 153.698 178.538 153.698 188.332 153.698 196.272 145.758 196.272 135.964 196.262 126.173 188.328 118.24 178.538 118.229ZM178.538 148.969C171.355 148.969 165.533 143.146 165.533 135.964 165.533 128.781 171.355 122.958 178.538 122.958 185.721 122.958 191.543 128.781 191.543 135.964 191.535 143.143 185.717 148.961 178.538 148.969Z" transform="matrix(1.26872 0 0 1 400 373)"/></g></svg>